<svg width="142" height="190" viewBox="0 0 142 190" fill="none" xmlns="http://www.w3.org/2000/svg">
<path d="M31 187H95C101.627 187 107 181.627 107 175V99H19V175C19 181.627 24.3726 187 31 187Z" stroke="white" stroke-width="4.43662" stroke-miterlimit="10" stroke-linecap="round" stroke-linejoin="round"/>
<path d="M75.001 99.0002V3.00024H43.001V99.0002" stroke="white" stroke-width="4.43662" stroke-miterlimit="10" stroke-linecap="round" stroke-linejoin="round"/>
<path d="M43.001 27.0004H59.001" stroke="white" stroke-width="4.43662" stroke-miterlimit="10" stroke-linecap="round" stroke-linejoin="round"/>
<path d="M59.001 51H43.001" stroke="white" stroke-width="4.43662" stroke-miterlimit="10" stroke-linecap="round" stroke-linejoin="round"/>
<path d="M59.001 75.0001H43.001" stroke="white" stroke-width="4.43662" stroke-miterlimit="10" stroke-linecap="round" stroke-linejoin="round"/>
<path d="M39 99L19 27L3 3V31L23 99" stroke="white" stroke-width="4.43662" stroke-miterlimit="10" stroke-linecap="round" stroke-linejoin="round"/>
<path d="M19 27.0004L3 31.0004" stroke="white" stroke-width="4.43662" stroke-miterlimit="10" stroke-linecap="round" stroke-linejoin="round"/>
<path d="M99.1953 35.0002C99.1953 26.1637 115.195 16.3752 115.195 3.00024C129.195 17.8752 131.195 26.1637 131.195 35.0002C131.195 43.8368 124.032 51.0002 115.195 51.0002C106.359 51.0002 99.1953 43.8368 99.1953 35.0002Z" stroke="white" stroke-width="4.43662" stroke-miterlimit="10" stroke-linecap="round" stroke-linejoin="round"/>
<path d="M117.85 50.7319L102.998 99H86.998L102.521 44.6675" stroke="white" stroke-width="4.43662" stroke-miterlimit="10" stroke-linecap="round" stroke-linejoin="round"/>
<path d="M107 107H127C133.627 107 139 112.372 139 119V127C139 142.464 126.464 155 111 155H107" stroke="white" stroke-width="4.43662" stroke-miterlimit="10" stroke-linecap="round" stroke-linejoin="round"/>
</svg>
